<svg width="64" height="64" viewBox="0 0 64 64" fill="none" xmlns="http://www.w3.org/2000/svg">
<rect x="0.5" y="0.5" width="63" height="63" rx="11.5" fill="#273647"/>
<rect x="0.5" y="0.5" width="63" height="63" rx="11.5" stroke="#3D494C"/>
<path d="M27.5 36.5V27.5H36.5V36.5H27.5ZM30.5 33.5H33.5V30.5H30.5V33.5ZM27.5 45.5V42.5H24.5C23.675 42.5 22.9688 42.2062 22.3812 41.6187C21.7937 41.0312 21.5 40.325 21.5 39.5V36.5H18.5V33.5H21.5V30.5H18.5V27.5H21.5V24.5C21.5 23.675 21.7937 22.9688 22.3812 22.3812C22.9688 21.7937 23.675 21.5 24.5 21.5H27.5V18.5H30.5V21.5H33.5V18.5H36.5V21.5H39.5C40.325 21.5 41.0312 21.7937 41.6187 22.3812C42.2062 22.9688 42.5 23.675 42.5 24.5V27.5H45.5V30.5H42.5V33.5H45.5V36.5H42.5V39.5C42.5 40.325 42.2062 41.0312 41.6187 41.6187C41.0312 42.2062 40.325 42.5 39.5 42.5H36.5V45.5H33.5V42.5H30.5V45.5H27.5ZM39.5 39.5V24.5H24.5V39.5H39.5Z" fill="#4CD7F6"/>
</svg>
