<svg width="23" height="18" viewBox="0 0 23 18" fill="currentColor" xmlns="http://www.w3.org/2000/svg">
<path d="M21 2.25H18.75V1.5C18.75 0.672127 18.0779 0 17.25 0H5.25C4.42213 0 3.75 0.672127 3.75 1.5V2.25H1.5C0.672127 2.25 0 2.92213 0 3.75V5.25C0 7.31968 1.68032 9 3.75 9H4.09219C4.99518 11.8616 7.51452 13.9114 10.5 14.2134V16.5H8.25C7.83606 16.5 7.5 16.8361 7.5 17.25C7.5 17.6639 7.83606 18 8.25 18H14.25C14.6639 18 15 17.6639 15 17.25C15 16.8361 14.6639 16.5 14.25 16.5H12V14.2106C14.9944 13.9078 17.4788 11.8069 18.3825 9H18.75C20.8197 9 22.5 7.31968 22.5 5.25V3.75C22.5 2.92213 21.8279 2.25 21 2.25ZM3.75 7.5C2.50819 7.5 1.5 6.49181 1.5 5.25V3.75H3.75V6.75C3.75 7 3.76219 7.25 3.78656 7.5H3.75ZM21 5.25C21 6.49181 19.9918 7.5 18.75 7.5H18.7031C18.7339 7.22293 18.7495 6.9444 18.75 6.66563V3.75H21V5.25Z" fill="currentColor"/>
</svg>
