<svg width="24" height="24" viewBox="0 0 24 24" fill="currentColor" xmlns="http://www.w3.org/2000/svg">
<path d="M11.9996 7.50005C9.51594 7.50005 7.49956 9.51643 7.49956 12.0001C7.49956 14.4837 9.51594 16.5001 11.9996 16.5001C14.4832 16.5001 16.4996 14.4837 16.4996 12.0001C16.497 9.51584 14.4838 7.50263 11.9996 7.50005ZM11.9996 15.0001C10.3438 15.0001 8.99956 13.6558 8.99956 12.0001C8.99956 10.3443 10.3438 9.00005 11.9996 9.00005C13.6553 9.00005 14.9996 10.3443 14.9996 12.0001C14.9996 13.6558 13.6553 15.0001 11.9996 15.0001ZM20.2496 12.2026C20.2533 12.0676 20.2533 11.9326 20.2496 11.7976L21.6483 10.0501C21.797 9.86398 21.8485 9.61832 21.7871 9.38818C21.5578 8.52624 21.2147 7.69866 20.7671 6.92724C20.6482 6.72254 20.4397 6.58597 20.2046 6.5588L17.9808 6.3113C17.8883 6.2138 17.7946 6.12005 17.6996 6.03005L17.4371 3.80068C17.4097 3.56536 17.2727 3.35682 17.0677 3.23818C16.296 2.79131 15.4685 2.44865 14.6067 2.21911C14.3765 2.15789 14.1308 2.20974 13.9449 2.3588L12.2021 3.75005C12.0671 3.75005 11.9321 3.75005 11.7971 3.75005L10.0496 2.35411C9.86349 2.20538 9.61783 2.15388 9.38769 2.21536C8.52589 2.44508 7.69836 2.78807 6.92675 3.23536C6.72206 3.35422 6.58548 3.56273 6.55831 3.79786L6.31081 6.02536C6.21331 6.11849 6.11956 6.21224 6.02956 6.30661L3.80019 6.56255C3.56487 6.58993 3.35633 6.72687 3.23769 6.93193C2.79082 7.70364 2.44816 8.53115 2.21862 9.39286C2.1574 9.62315 2.20925 9.86883 2.35831 10.0547L3.74956 11.7976C3.74956 11.9326 3.74956 12.0676 3.74956 12.2026L2.35362 13.9501C2.20489 14.1361 2.15339 14.3818 2.21487 14.6119C2.44418 15.4739 2.78719 16.3014 3.23487 17.0729C3.35373 17.2776 3.56224 17.4141 3.79737 17.4413L6.02112 17.6888C6.11425 17.7863 6.208 17.8801 6.30237 17.9701L6.56206 20.1994C6.58944 20.4347 6.72638 20.6433 6.93144 20.7619C7.70315 21.2088 8.53066 21.5515 9.39237 21.781C9.62266 21.8422 9.86834 21.7904 10.0542 21.6413L11.7971 20.2501C11.9321 20.2538 12.0671 20.2538 12.2021 20.2501L13.9496 21.6488C14.1356 21.7975 14.3813 21.849 14.6114 21.7875C15.4734 21.5582 16.301 21.2152 17.0724 20.7676C17.2771 20.6487 17.4136 20.4402 17.4408 20.2051L17.6883 17.9813C17.7858 17.8888 17.8796 17.7951 17.9696 17.7001L20.1989 17.4376C20.4342 17.4102 20.6428 17.2732 20.7614 17.0682C21.2083 16.2965 21.551 15.4689 21.7805 14.6072C21.8417 14.3769 21.7899 14.1313 21.6408 13.9454L20.2496 12.2026ZM18.7402 11.5932C18.7561 11.8642 18.7561 12.1359 18.7402 12.4069C18.729 12.5925 18.7872 12.7756 18.9033 12.9207L20.2336 14.5829C20.081 15.068 19.8855 15.5386 19.6496 15.9891L17.5308 16.2291C17.3463 16.2496 17.1759 16.3378 17.0527 16.4766C16.8722 16.6796 16.68 16.8718 16.4771 17.0522C16.3382 17.1755 16.25 17.3458 16.2296 17.5304L15.9942 19.6472C15.5438 19.8833 15.0732 20.0788 14.588 20.2313L12.9249 18.901C12.7918 18.7947 12.6265 18.7368 12.4561 18.7369H12.4111C12.1401 18.7529 11.8684 18.7529 11.5974 18.7369C11.4118 18.7258 11.2287 18.7839 11.0836 18.9001L9.41675 20.2313C8.93162 20.0787 8.46102 19.8832 8.0105 19.6472L7.7705 17.5313C7.75002 17.3468 7.66183 17.1764 7.523 17.0532C7.32004 16.8727 7.12783 16.6805 6.94737 16.4776C6.82412 16.3387 6.65376 16.2505 6.46925 16.2301L4.35237 15.9938C4.1163 15.5433 3.92084 15.0727 3.76831 14.5876L5.09862 12.9244C5.21479 12.7793 5.27292 12.5962 5.26175 12.4107C5.24581 12.1397 5.24581 11.8679 5.26175 11.5969C5.27292 11.4114 5.21479 11.2283 5.09862 11.0832L3.76831 9.41724C3.92096 8.93211 4.11642 8.46151 4.35237 8.01099L6.46831 7.77099C6.65283 7.75051 6.82319 7.66232 6.94644 7.52349C7.1269 7.32053 7.3191 7.12832 7.52206 6.94786C7.66145 6.82453 7.75 6.65378 7.7705 6.4688L8.00581 4.35286C8.45628 4.11679 8.92689 3.92133 9.41206 3.7688L11.0752 5.09911C11.2203 5.21527 11.4034 5.27341 11.5889 5.26224C11.86 5.2463 12.1317 5.2463 12.4027 5.26224C12.5882 5.27341 12.7713 5.21527 12.9164 5.09911L14.5824 3.7688C15.0675 3.92145 15.5381 4.11691 15.9886 4.35286L16.2286 6.4688C16.2491 6.65331 16.3373 6.82368 16.4761 6.94693C16.6791 7.12739 16.8713 7.31959 17.0518 7.52255C17.175 7.66138 17.3454 7.74957 17.5299 7.77005L19.6467 8.00536C19.8828 8.45583 20.0783 8.92645 20.2308 9.41161L18.9005 11.0747C18.7832 11.2211 18.725 11.406 18.7374 11.5932H18.7402Z" fill="currentColor"/>
</svg>
