<svg width="24" height="24" viewBox="0 0 24 24" fill="currentColor" xmlns="http://www.w3.org/2000/svg">
<path d="M21 18.75H20.25V3.75C20.25 3.33606 19.9139 3 19.5 3H14.25C13.8361 3 13.5 3.33606 13.5 3.75V7.5H9C8.58606 7.5 8.25 7.83606 8.25 8.25V12H4.5C4.08606 12 3.75 12.3361 3.75 12.75V18.75H3C2.58606 18.75 2.25 19.0861 2.25 19.5C2.25 19.9139 2.58606 20.25 3 20.25H21C21.4139 20.25 21.75 19.9139 21.75 19.5C21.75 19.0861 21.4139 18.75 21 18.75ZM15 4.5H18.75V18.75H15V4.5ZM9.75 9H13.5V18.75H9.75V9ZM5.25 13.5H8.25V18.75H5.25V13.5Z" fill="currentColor"/>
</svg>
